PathFileType	4	(X/Y/Z)	/Users/itak/Documents/Research/Walk-IL/dataset/trc/00406_00012.trc
DataRate	CameraRate	NumFrames	NumMarkers	Units	OrigDataRate	OrigDataStartFrame	OrigNumFrames
100.000000	100.000000	4	53	mm	100.000000	84	677
Frame#	Time	RPSI			LPSI			L3			STRN			T10			C7			CLAV			RBAK			LBAK			LSHO			LUPA			LAEL			LAOL			LWTS			LWPS			LFRA			LIFD			LHPS			LHTS			RSHO			RUPA			RAEL			RAOL			RWTS			RWPS			RFRA			RIFD			RHTS			RHPS			RBHD			LFHD			RFHD			LBHD			LHIP			RHIP			RASI			LASI			LKNE			LTHI			LANK			LTIP			LTOE			LMT1			LMT5			LHEE			RKNE			RTHI			RANK			RTIP			RTOE			RMT1			RMT5			RHEE			
		X1	Y1	Z1	X2	Y2	Z2	X3	Y3	Z3	X4	Y4	Z4	X5	Y5	Z5	X6	Y6	Z6	X7	Y7	Z7	X8	Y8	Z8	X9	Y9	Z9	X10	Y10	Z10	X11	Y11	Z11	X12	Y12	Z12	X13	Y13	Z13	X14	Y14	Z14	X15	Y15	Z15	X16	Y16	Z16	X17	Y17	Z17	X18	Y18	Z18	X19	Y19	Z19	X20	Y20	Z20	X21	Y21	Z21	X22	Y22	Z22	X23	Y23	Z23	X24	Y24	Z24	X25	Y25	Z25	X26	Y26	Z26	X27	Y27	Z27	X28	Y28	Z28	X29	Y29	Z29	X30	Y30	Z30	X31	Y31	Z31	X32	Y32	Z32	X33	Y33	Z33	X34	Y34	Z34	X35	Y35	Z35	X36	Y36	Z36	X37	Y37	Z37	X38	Y38	Z38	X39	Y39	Z39	X40	Y40	Z40	X41	Y41	Z41	X42	Y42	Z42	X43	Y43	Z43	X44	Y44	Z44	X45	Y45	Z45	X46	Y46	Z46	X47	Y47	Z47	X48	Y48	Z48	X49	Y49	Z49	X50	Y50	Z50	X51	Y51	Z51	X52	Y52	Z52	X53	Y53	Z53	

85	0.84	172.372314453125	980.8836669921875	1134.771240234375	165.0144195556641	975.8546752929688	1265.850830078125	162.3949279785156	1062.079467773438	1201.761596679688	-89.06510925292969	1199.521606445312	1170.352416992188	160.8350219726562	1163.835693359375	1216.004760742188	100.918342590332	1407.841918945312	1219.661010742188	-45.07746887207031	1321.110107421875	1178.219360351562	166.6663818359375	1265.830932617188	1163.580078125	92.52410125732422	1370.621337890625	1324.007446289062	-5.023864269256592	1381.81884765625	1353.631591796875	11.34733104705811	1267.1943359375	1428.675048828125	12.58565998077393	1066.435302734375	1447.3984375	80.81629180908203	1054.377197265625	1399.494262695312	-84.57875823974609	862.9494018554688	1379.95361328125	-30.15633583068848	834.2470703125	1434.837890625	-3.950556516647339	960.2513427734375	1447.7978515625	-78.42305755615234	683.1493530273438	1348.96484375	-44.08568572998047	754.6759643554688	1415.382080078125	-102.2236633300781	760.9097900390625	1384.979370117188	79.9993896484375	1386.793212890625	1052.350830078125	112.8243408203125	1326.933227539062	997.5780639648438	148.7326507568359	1070.6259765625	943.1590576171875	143.7958068847656	1053.801391601562	1037.112670898438	13.14556503295898	860.142333984375	921.770751953125	67.82381439208984	850.977783203125	872.9408569335938	129.0467376708984	1006.583190917969	916.0618286132812	3.6233229637146	688.2145385742188	895.629150390625	-7.055669784545898	759.9110717773438	885.52294921875	57.79965209960938	763.68115234375	861.245849609375	99.93824005126953	1581.679565429688	1122.858276367188	-76.36525726318359	1605.951538085938	1211.936401367188	-30.83345985412598	1599.447631835938	1097.742919921875	54.90958404541016	1585.791015625	1277.516845703125	72.31359100341797	957.3385009765625	1373.362670898438	96.59877777099609	963.5934448242188	1015.498168945312	-38.44828796386719	968.794921875	1066.825317382812	-42.58195114135742	949.7615966796875	1329.948120117188	73.79872131347656	463.2021179199219	1350.237548828125	67.21193695068359	605.9802856445312	1360.969116210938	229.1309814453125	40.25630569458008	1307.5283203125	152.4081115722656	239.4367828369141	1340.216674804688	13.77875232696533	47.24529266357422	1243.871215820312	92.91554260253906	44.35109710693359	1213.489501953125	101.6315383911133	41.69626617431641	1320.443481445312	267.4104614257812	36.90033340454102	1251.457885742188	-120.6074523925781	508.8531799316406	1029.18408203125	-42.7794189453125	759.0521850585938	1009.469543457031	-44.89353179931641	85.35414123535156	1069.490844726562	-123.7838592529297	379.3442077636719	1038.71533203125	-226.1853179931641	80.99922180175781	1101.918701171875	-159.6365966796875	79.57744598388672	1143.988525390625	-126.3828353881836	71.82801818847656	1049.978881835938	16.40735626220703	74.52028656005859	1134.8505859375	
86	0.85	167.7837829589844	980.2274780273438	1133.789794921875	160.0772399902344	975.3031005859375	1264.791870117188	157.3135528564453	1061.477172851562	1200.699462890625	-93.96266174316406	1198.481201171875	1168.743286132812	155.6787109375	1163.090087890625	1215.213256835938	95.59040069580078	1407.060791015625	1218.5576171875	-50.01624298095703	1320.042114257812	1176.595581054688	161.6844482421875	1265.051025390625	1162.95556640625	86.81212615966797	1369.909790039062	1322.975463867188	-10.84751129150391	1381.0576171875	1352.1435546875	5.185927867889404	1266.502075195312	1427.374755859375	5.947997570037842	1065.718627929688	1446.203491210938	74.47526550292969	1053.470947265625	1398.652221679688	-94.30158996582031	864.7852172851562	1377.3525390625	-40.14890289306641	834.4126586914062	1432.024780273438	-11.65557670593262	959.7474975585938	1446.050659179688	-90.86354064941406	684.7489624023438	1344.50439453125	-55.82715606689453	755.3857421875	1411.702758789062	-113.7385711669922	762.9158935546875	1381.415771484375	75.47379302978516	1385.758422851562	1051.189453125	108.8323059082031	1325.958862304688	996.8112182617188	147.1557159423828	1069.754150390625	943.8125	141.1827697753906	1053.248291015625	1037.711791992188	13.97173976898193	857.8883056640625	921.3592529296875	69.31666564941406	849.1676635742188	873.2493896484375	128.3896026611328	1005.5107421875	916.6588134765625	6.575728416442871	685.8328857421875	895.6814575195312	-4.782030582427979	757.3431396484375	885.1673583984375	60.36393356323242	761.7401123046875	861.7218627929688	95.15483093261719	1580.580932617188	1121.530151367188	-81.90045166015625	1604.908325195312	1209.143310546875	-35.53873443603516	1598.01220703125	1095.389404296875	48.89472579956055	1585.186767578125	1275.775024414062	67.29238891601562	956.6356811523438	1372.179931640625	92.16371154785156	962.87548828125	1014.59326171875	-43.00580596923828	967.9607543945312	1065.618041992188	-47.48634719848633	948.7722778320312	1328.669799804688	72.27239990234375	462.837646484375	1349.789428710938	64.41403961181641	605.5911254882812	1360.226196289062	229.0671997070312	40.37832260131836	1307.458618164062	151.7624664306641	239.3997039794922	1340.020751953125	13.72774124145508	47.17173767089844	1243.766845703125	92.90055847167969	44.24948501586914	1213.419921875	101.6003494262695	41.6865348815918	1320.380981445312	267.3807373046875	36.9710693359375	1251.369995117188	-125.9514694213867	508.6004333496094	1026.497680664062	-47.54361343383789	758.9212646484375	1007.596374511719	-64.87661743164062	82.63343811035156	1067.149536132812	-133.1498260498047	379.3458251953125	1035.831420898438	-246.2891082763672	83.10116577148438	1097.332641601562	-180.4350891113281	79.90886688232422	1140.3310546875	-146.3307189941406	71.45122528076172	1046.707885742188	-4.68743371963501	69.97371673583984	1133.23876953125	
87	0.86	163.0221405029297	979.3493041992188	1132.733032226562	155.0010986328125	974.5789794921875	1263.654052734375	152.0878601074219	1060.70703125	1199.522827148438	-99.01815032958984	1197.314208984375	1167.029541015625	150.4244689941406	1162.160278320312	1214.330810546875	90.15769195556641	1406.129638671875	1217.375732421875	-55.06382751464844	1318.836303710938	1174.906005859375	156.5891265869141	1264.120971679688	1162.214721679688	80.99759674072266	1369.024169921875	1321.8486328125	-16.7646656036377	1380.108276367188	1350.544189453125	-1.082094311714172	1265.616577148438	1425.983276367188	-0.8619170188903809	1064.811401367188	1444.937744140625	67.96040344238281	1052.332885742188	1397.766967773438	-104.2550735473633	866.627197265625	1374.58544921875	-50.52944183349609	834.5501098632812	1429.059448242188	-19.61718940734863	959.1053466796875	1444.215942382812	-103.9773864746094	686.5597534179688	1339.8154296875	-68.06489562988281	756.1511840820312	1407.795654296875	-125.6894912719727	765.0616455078125	1377.652709960938	70.84061431884766	1384.578369140625	1049.938720703125	104.7120895385742	1324.83203125	995.9676513671875	145.4072875976562	1068.713012695312	944.4929809570312	138.4071197509766	1052.547729492188	1038.3271484375	14.76101684570312	855.4158325195312	921.065185546875	70.80372619628906	847.1610717773438	873.7102661132812	127.5900192260742	1004.266540527344	917.3103637695312	9.648417472839355	683.2349243164062	895.9614868164062	-2.434377431869507	754.541748046875	885.0106811523438	62.97967910766602	759.6063842773438	862.3970947265625	90.23767852783203	1579.326049804688	1120.120727539062	-87.54051971435547	1603.735473632812	1206.267333984375	-40.36085891723633	1596.432861328125	1092.95263671875	42.77490234375	1584.432739257812	1273.9462890625	62.07139587402344	955.8414306640625	1370.915893554688	87.66166687011719	961.8618774414062	1013.66796875	-47.66830825805664	966.9093017578125	1064.287475585938	-52.57754135131836	947.7095336914062	1327.2646484375	70.55091857910156	462.420654296875	1349.350341796875	61.38516235351562	605.1396484375	1359.467651367188	229.0017395019531	40.50205612182617	1307.400756835938	151.0146026611328	239.3304443359375	1339.84423828125	13.67430114746094	47.10604095458984	1243.681884765625	92.87728118896484	44.14052200317383	1213.350219726562	101.5668869018555	41.67115020751953	1320.322875976562	267.3255615234375	37.0346794128418	1251.3046875	-131.2904815673828	508.0602416992188	1023.856262207031	-52.37627029418945	758.479736328125	1005.701782226562	-85.24633026123047	80.05910491943359	1064.542724609375	-142.6172332763672	379.2163391113281	1032.92919921875	-266.5264892578125	85.22126007080078	1092.640747070312	-201.3953399658203	80.35758209228516	1136.502807617188	-166.5675506591797	71.18924713134766	1043.2353515625	-25.97412490844727	65.72056579589844	1131.242065429688	
88	0.87	158.0890045166016	978.25390625	1131.6044921875	149.7752685546875	973.6835327148438	1262.44287109375	146.740234375	1059.76806640625	1198.24755859375	-104.2174453735352	1196.025634765625	1165.2021484375	145.04931640625	1161.050659179688	1213.359375	84.6182861328125	1405.050659179688	1216.110473632812	-60.21232223510742	1317.501831054688	1173.142456054688	151.3789215087891	1263.045043945312	1161.359375	75.08275604248047	1367.97119140625	1320.619873046875	-22.77964401245117	1378.982177734375	1348.8212890625	-7.442715644836426	1264.543090820312	1424.487915039062	-7.826154232025146	1063.720336914062	1443.581298828125	61.28094100952148	1050.96826171875	1396.81201171875	-114.4054489135742	868.4839477539062	1371.6494140625	-61.29052352905273	834.677978515625	1425.9453125	-27.83164215087891	958.3457641601562	1442.280029296875	-117.6955184936523	688.5640869140625	1334.9501953125	-80.77399444580078	756.9771118164062	1403.710571289062	-138.0318908691406	767.3643188476562	1373.711181640625	66.11016082763672	1383.26025390625	1048.596557617188	100.4761428833008	1323.561279296875	995.0481567382812	143.4813537597656	1067.506469726562	945.1963500976562	135.448486328125	1051.701171875	1038.95263671875	15.50209712982178	852.7374877929688	920.8839721679688	72.27586364746094	844.9705810546875	874.3231811523438	126.6416397094727	1002.856384277344	918.012939453125	12.82223606109619	680.43701171875	896.4713134765625	-0.03076187521219254	751.5255126953125	885.0490112304688	65.63738250732422	757.2913208007812	863.2778930664062	85.19136047363281	1577.919799804688	1118.632202148438	-93.27815246582031	1602.435180664062	1203.3076171875	-45.27988815307617	1594.730224609375	1090.431884765625	36.55071640014648	1583.53369140625	1272.032104492188	56.62561798095703	954.955078125	1369.571533203125	83.09971618652344	960.572509765625	1012.721740722656	-52.43804168701172	965.6589965820312	1062.82373046875	-57.88122177124023	946.57861328125	1325.728515625	68.64739990234375	461.9571838378906	1348.922119140625	58.13009643554688	604.6245727539062	1358.693481445312	228.9347991943359	40.62165451049805	1307.357055664062	150.1783599853516	239.2365875244141	1339.691040039062	13.60470581054688	47.04829788208008	1243.629760742188	92.84007263183594	44.02894592285156	1213.286499023438	101.5343627929688	41.64788055419922	1320.274658203125	267.2552490234375	37.09586334228516	1251.264404296875	-136.629638671875	507.2567749023438	1021.257080078125	-57.23447799682617	757.7525024414062	1003.785827636719	-105.8549346923828	77.69363403320312	1061.684326171875	-152.1369781494141	378.9821472167969	1030.008056640625	-286.816162109375	87.39804077148438	1087.859741210938	-222.4263458251953	80.97593688964844	1132.503540039062	-186.965576171875	71.08006286621094	1039.562622070312	-47.34146499633789	61.83433532714844	1128.8974609375	
